<svg width="132" height="125" viewBox="0 0 132 125" fill="none" xmlns="http://www.w3.org/2000/svg">
<path d="M95 66.0347C95 45.5815 78.3021 29 57.7039 29C48.6144 28.9978 39.8404 32.309 33.0476 38.3048C31.9994 39.2259 31.0033 40.2038 30.0639 41.2341C12.1075 57.719 18.6617 82.3422 9.84064 91.056C-0.891497 101.658 0.344356 118.219 18.2677 121.153C58.2438 127.701 82.0652 94.1145 82.0652 94.1145C88.1646 87.5184 95 75.691 95 66.0278" fill="#FAD841"/>
<path d="M95 66.0347C95 45.5815 78.3021 29 57.7039 29C48.6144 28.9978 39.8404 32.309 33.0476 38.3048C31.9994 39.2259 31.0033 40.2038 30.0639 41.2341C12.1075 57.719 18.6617 82.3422 9.84064 91.056C-0.891497 101.658 0.344356 118.219 18.2677 121.153C58.2438 127.701 82.0652 94.1145 82.0652 94.1145C88.1646 87.5184 95 75.691 95 66.0278" stroke="black" stroke-width="5"/>
<path d="M76.8817 84.2271C76.8817 84.2271 53.8383 119.635 10.5711 115.632C12.9335 117.344 14.4702 118.083 19.0385 118.795C59.3657 124.681 81.5664 90.8165 81.5664 90.8165C87.7877 83.5586 92.536 73.7881 92.4976 65.4162C92.4976 61.0174 91.7282 57.9979 90.2497 53.8076C90.2497 53.8076 83.9723 76.5128 76.8817 84.2271Z" fill="#FAAC28"/>
<path d="M74.1559 34C72.8436 33.9984 71.6689 33.2007 71.2046 31.9958C70.7402 30.7909 71.0828 29.4296 72.0654 28.5757C82.159 19.8316 83.6864 2.9676 83.6989 2.80022C83.8657 1.11586 85.3777 -0.125924 87.096 0.0102018C88.8143 0.146328 90.1039 1.61006 89.9934 3.29889C89.9277 4.08873 88.2706 22.8062 76.2428 33.2241C75.6673 33.7245 74.9246 34 74.1559 33.9983" fill="black"/>
<path d="M129 30.9999C100.009 3.57113 88 31.9282 88 31.9282C88 31.9282 101.371 59.9619 129 31.1638C129 30.9999 129 30.9999 129 30.9999Z" fill="#3BB777" stroke="black" stroke-width="5" stroke-linejoin="round"/>
<path d="M125.5 31L91 32.0234C91 32.0234 101.224 54.6781 125.094 31.5" fill="#229857"/>
<path fill-rule="evenodd" clip-rule="evenodd" d="M46.8524 43.9375C47.2331 42.7765 46.8625 41.5051 45.9135 40.7164C45.2926 40.1993 44.4875 39.9451 43.6754 40.0099C42.8633 40.0748 42.1108 40.4532 41.5834 41.0621C40.7771 41.9908 40.6213 43.3043 41.1886 44.3896C41.7559 45.4749 42.9346 46.1181 44.1746 46.0192C45.4147 45.9202 46.4717 45.0985 46.8524 43.9375ZM26.0085 70.9706C26.1254 70.9866 26.2432 70.9946 26.3611 70.9948L26.3541 71C27.5193 70.9983 28.5073 70.16 28.676 69.0299C28.6972 68.8917 30.7917 55.4193 38.1137 49.7787C39.1361 48.9932 39.3153 47.5441 38.5139 46.5419C37.7126 45.5398 36.2341 45.3642 35.2117 46.1496C26.4246 52.9118 24.1185 67.7287 24.0251 68.356C23.9343 68.9605 24.0922 69.5757 24.4642 70.066C24.8362 70.5564 25.3917 70.8818 26.0085 70.9706Z" fill="#FEFEFE"/>
</svg>
